<svg width="25" height="24" viewBox="0 0 25 24" fill="none" xmlns="http://www.w3.org/2000/svg">
<mask id="mask0_1498_59347" style="mask-type:alpha" maskUnits="userSpaceOnUse" x="0" y="0" width="25" height="24">
<rect x="0.5" width="24" height="24" fill="#D9D9D9"/>
</mask>
<g mask="url(#mask0_1498_59347)">
<path d="M4.43425 18.293C4.11509 18.293 3.84567 18.1832 3.626 17.9635C3.4065 17.744 3.29675 17.4747 3.29675 17.1555C3.29675 16.8364 3.4065 16.5669 3.626 16.3473C3.84567 16.1278 4.11509 16.018 4.43425 16.018H20.5658C20.8849 16.018 21.1543 16.1278 21.374 16.3473C21.5935 16.5669 21.7033 16.8364 21.7033 17.1555C21.7033 17.4747 21.5935 17.744 21.374 17.9635C21.1543 18.1832 20.8849 18.293 20.5658 18.293H4.43425ZM4.43425 13.1375C4.11509 13.1375 3.84567 13.0278 3.626 12.8083C3.4065 12.5886 3.29675 12.3192 3.29675 12C3.29675 11.6809 3.4065 11.4114 3.626 11.1918C3.84567 10.9723 4.11509 10.8625 4.43425 10.8625H20.5658C20.8849 10.8625 21.1543 10.9723 21.374 11.1918C21.5935 11.4114 21.7033 11.6809 21.7033 12C21.7033 12.3192 21.5935 12.5886 21.374 12.8083C21.1543 13.0278 20.8849 13.1375 20.5658 13.1375H4.43425ZM4.43425 7.98203C4.11509 7.98203 3.84567 7.87228 3.626 7.65278C3.4065 7.43311 3.29675 7.1637 3.29675 6.84453C3.29675 6.52536 3.4065 6.25603 3.626 6.03653C3.84567 5.81686 4.11509 5.70703 4.43425 5.70703H20.5658C20.8849 5.70703 21.1543 5.81686 21.374 6.03653C21.5935 6.25603 21.7033 6.52536 21.7033 6.84453C21.7033 7.1637 21.5935 7.43311 21.374 7.65278C21.1543 7.87228 20.8849 7.98203 20.5658 7.98203H4.43425Z" fill="white"/>
</g>
</svg>
