<svg width="17" height="16" viewBox="0 0 17 16" fill="none" xmlns="http://www.w3.org/2000/svg">
<path d="M6.76243 7.97058L0.970522 2.17867C0.724366 1.93251 0.601385 1.64292 0.601578 1.30988C0.601577 0.976657 0.724656 0.686965 0.970812 0.440809C1.21716 0.194459 1.50676 0.0714783 1.8396 0.071865C2.17244 0.0718644 2.46194 0.194943 2.70809 0.441099L8.5 6.233L14.2919 0.441099C14.5381 0.194943 14.8277 0.071962 15.1607 0.0721555C15.4939 0.0721553 15.7836 0.195233 16.0298 0.441389C16.2761 0.687738 16.3991 0.977333 16.3987 1.31018C16.3987 1.64302 16.2756 1.93251 16.0295 2.17867L10.2376 7.97058L16.0295 13.7625C16.2756 14.0086 16.3986 14.2982 16.3984 14.6313C16.3984 14.9645 16.2753 15.2542 16.0292 15.5003C15.7828 15.7467 15.4932 15.8697 15.1604 15.8693C14.8276 15.8693 14.5381 15.7462 14.2919 15.5001L8.5 9.70815L2.70809 15.5001C2.46194 15.7462 2.17234 15.8692 1.83931 15.869C1.50608 15.869 1.21639 15.7459 0.970231 15.4998C0.723882 15.2534 0.6009 14.9638 0.601287 14.631C0.601287 14.2981 0.724365 14.0086 0.970521 13.7625L6.76243 7.97058Z" fill="white"/>
</svg>
